<svg xmlns="http://www.w3.org/2000/svg" viewBox="0 0 140 193"><defs><style>.cls-1{fill:#534d53;}.cls-1,.cls-2{fill-rule:evenodd;}.cls-2{fill:#b3b0b3;}.cls-3{fill:#f3f2f3;}</style></defs><title>pedro</title><g id="Layer_2" data-name="Layer 2"><g id="Layer_1-2" data-name="Layer 1"><path class="cls-1" d="M52,132v26H17v-9H0V123H17v9Zm18-9v9H52v-9Zm0,0v-9H87v9Zm-18,0H35v-9H52ZM35,105v9H17v-9H0v79H0V167H105V149h0V123h18V105H87V96h0v9Z"/><path class="cls-1" d="M70,35H87v9H70ZM52,35v9H35V35Zm18,0H52V26H70ZM35,35h0v9H17V61H140V52H105V44H87V8H70V0H52V9H35Z"/><path class="cls-1" d="M17,70v9H0V70Zm18,35h0V79H70v9H87V79h18v9h18V79h17V70H17V61H0V88H17v9H35Z"/><polygon class="cls-2" points="105 96 105 79 87 79 87 88 70 88 70 79 35 79 35 105 87 105 87 96 105 96"/><polygon class="cls-2" points="52 132 17 132 17 123 0 123 0 149 17 149 17 158 52 158 52 132"/><polygon class="cls-2" points="105 167 70 167 70 193 123 193 123 176 105 176 105 167"/><rect class="cls-3" x="17" y="61" width="123" height="9.01"/><polygon class="cls-2" points="35 167 0 167 0 184 17 184 17 193 52 193 52 176 35 176 35 167"/><polygon class="cls-2" points="140 149 140 132 123 132 123 123 105 123 105 149 140 149"/><rect class="cls-3" x="52" y="26" width="18" height="9.01"/><rect class="cls-3" x="17" y="105" width="18" height="9.01"/><rect class="cls-3" x="52" y="123" width="18" height="9.01"/><rect class="cls-3" x="35" y="35" width="17" height="8.99"/><rect class="cls-3" x="70" y="35" width="17" height="8.99"/><rect class="cls-3" y="70" width="17" height="8.99"/><rect class="cls-3" x="35" y="114" width="17" height="8.99"/><rect class="cls-3" x="70" y="114" width="17" height="8.99"/></g></g></svg>